# xmcd
#
# Track frame offsets:
#	150
#	18693
#	36153
#	50101
#	66368
#	82356
#	96472
#	111163
#	124770
#	136891
#	152585
#	170855
#	191169
#	205455
#
# Disc length: 2911 seconds
#
# Revision: 1
# Processed by: cddbd v1.5.2PL0 Copyright (c) Steve Scherf et al.
# Submitted via: audiograbber 1.83.01
#
DISCID=dd0b5d0e
DTITLE=CHEREE' - COUNTRY GIRL
DYEAR=1900
DGENRE=Country
TTITLE0=ME and BOBBY MCGEE
TTITLE1=LOVING ARMS
TTITLE2=BLUE EYES CRYING IN THE RAIN
TTITLE3=ALWAYS ON MY MIND
TTITLE4=TODAY I STARTED LOVING YOU AGAIN
TTITLE5=SOMEWHERE BETWEEN 
TTITLE6=SNOWBIRD
TTITLE7=I FALL TO PIECES
TTITLE8=GOLDEN RING
TTITLE9=TENNESSEE WALTZ
TTITLE10=HELP ME MAKE IT THROUGH THE NIGHT
TTITLE11=LOVE CAN BUILD A BRIDGE
TTITLE12=CRAZY
TTITLE13=TWO DOZEN ROSES
EXTD=
EXTT0=
EXTT1=
EXTT2=
EXTT3=
EXTT4=
EXTT5=
EXTT6=
EXTT7=
EXTT8=
EXTT9=
EXTT10=
EXTT11=
EXTT12=
EXTT13=
PLAYORDER=
